<?xml version="1.0" encoding="utf-8"?>
<!-- Generator: Adobe Illustrator 19.0.0, SVG Export Plug-In . SVG Version: 6.00 Build 0)  -->
<svg version="1.1" id="Layer_1" xmlns="http://www.w3.org/2000/svg" xmlns:xlink="http://www.w3.org/1999/xlink" x="0px" y="0px"
	 viewBox="0 0 157 27.7" style="enable-background:new 0 0 157 27.7;" xml:space="preserve">
<g id="XMLID_3_">
	<path id="XMLID_4_" d="M0,27.4v-3.6h0.6V4.7H0V1.1h5v3.6H4.4v19.1H5v3.6H0z"/>
	<path id="XMLID_6_" d="M9.4,13.7v-3.2h13.5v3.2l-9.6,10.4h9.5v3.2H9.2v-3.2l9.5-10.4H9.4z"/>
	<path id="XMLID_8_" d="M40.7,19.8H28.4c0,1.3,0.4,2.4,1.3,3.3c0.9,0.9,2.1,1.4,3.5,1.4c1,0,1.9-0.2,2.6-0.7
		c0.7-0.5,1.2-1.1,1.5-1.8l3,1.4c-1.7,2.9-4.1,4.3-7.4,4.3c-2.3,0-4.3-0.8-5.9-2.5c-1.6-1.7-2.4-3.8-2.4-6.3c0-2.6,0.8-4.7,2.4-6.4
		c1.6-1.6,3.5-2.5,5.9-2.5c2.2,0,4.1,0.8,5.6,2.4c1.5,1.6,2.3,3.7,2.3,6.2L40.7,19.8z M33.1,13.3c-2.4,0-3.9,1.1-4.5,3.3h8.6
		c-0.1-0.9-0.5-1.7-1.3-2.4C35.1,13.6,34.2,13.3,33.1,13.3z"/>
	<path id="XMLID_11_" d="M47.7,0v24.1l0.4,3.2h-3.6l-0.4-3.2V0H47.7z"/>
	<path id="XMLID_13_" d="M74.7,17.9l7.9-16.8H88v26.3h-3.7V6.2l-7.4,15.4h-4.3L65.1,6.2v21.2h-3.7V1.1h5.4L74.7,17.9z"/>
	<path id="XMLID_15_" d="M109.3,10.4v16.9H106l-0.4-1.4l-0.2-0.2l-0.2,0.2c-1.2,1.2-2.8,1.8-4.7,1.8c-2.4,0-4.4-0.8-6.1-2.5
		c-1.7-1.7-2.5-3.8-2.5-6.3c0-2.6,0.8-4.7,2.5-6.3c1.7-1.7,3.7-2.5,6.1-2.5c1.9,0,3.5,0.6,4.7,1.8l0.2,0.2l0.2-0.2l0.4-1.4H109.3z
		 M104.5,22.9c1-1.1,1.5-2.4,1.5-4c0-1.6-0.5-2.9-1.5-4c-1-1.1-2.2-1.6-3.7-1.6c-1.7,0-2.9,0.5-3.9,1.6c-0.9,1.1-1.4,2.4-1.4,4
		c0,1.6,0.5,2.9,1.4,4s2.2,1.6,3.9,1.6C102.3,24.5,103.6,23.9,104.5,22.9z"/>
	<path id="XMLID_18_" d="M113.6,27.4V10.4h3.2l0.4,1.8l0.2,0.2l0.2-0.2c1.1-1.4,2.4-2.2,4-2.2c0.7,0,1.3,0.1,1.8,0.4v3.2h-2.2
		c-1.1,0-2,0.4-2.7,1.1c-0.8,0.7-1.2,1.6-1.2,2.7v9.9H113.6z"/>
	<path id="XMLID_20_" d="M141.3,10.4v16.9h-3.2l-0.4-1.4l-0.2-0.2l-0.2,0.2c-1.2,1.2-2.8,1.8-4.7,1.8c-2.4,0-4.4-0.8-6.1-2.5
		c-1.7-1.7-2.5-3.8-2.5-6.3c0-2.6,0.8-4.7,2.5-6.3c1.7-1.7,3.7-2.5,6.1-2.5c1.9,0,3.5,0.6,4.7,1.8l0.2,0.2l0.2-0.2l0.4-1.4H141.3z
		 M136.6,22.9c1-1.1,1.5-2.4,1.5-4c0-1.6-0.5-2.9-1.5-4c-1-1.1-2.2-1.6-3.7-1.6c-1.7,0-2.9,0.5-3.9,1.6c-0.9,1.1-1.4,2.4-1.4,4
		c0,1.6,0.5,2.9,1.4,4s2.2,1.6,3.9,1.6C134.3,24.5,135.6,23.9,136.6,22.9z"/>
	<path id="XMLID_23_" d="M155.2,26.2c-1.2,1-2.6,1.5-4.3,1.5s-3.1-0.5-4.3-1.4s-2-2.1-2.3-3.7l3.2-1.3c0.1,0.9,0.5,1.7,1.1,2.2
		c0.6,0.6,1.4,0.9,2.3,0.9c0.9,0,1.5-0.2,2-0.6c0.5-0.4,0.7-0.9,0.7-1.5c0-1-0.7-1.6-2.2-1.8c-0.5-0.1-1.1-0.2-1.8-0.4
		c-1.5-0.4-2.7-1-3.5-1.9c-0.9-0.9-1.3-2-1.3-3.3c0-1.5,0.6-2.8,1.8-3.7c1.2-0.9,2.6-1.4,4.1-1.4c1.6,0,2.9,0.5,4.1,1.4
		c1.2,0.9,1.8,2.1,2,3.6h-3.6c0-0.5-0.2-1-0.7-1.3c-0.5-0.4-1.1-0.5-1.8-0.5c-0.7,0-1.3,0.2-1.8,0.5c-0.5,0.4-0.7,0.8-0.7,1.3
		c0,1,0.7,1.7,2.2,1.9l1.8,0.4c1.5,0.3,2.7,0.9,3.5,1.8c0.9,0.8,1.3,1.9,1.3,3.3C157,23.9,156.4,25.2,155.2,26.2z"/>
</g>
</svg>
